<?xml version="1.0" encoding="utf-8"?>
<!-- Generator: Adobe Illustrator 25.2.1, SVG Export Plug-In . SVG Version: 6.00 Build 0)  -->
<svg version="1.1" id="Layer_1" xmlns="http://www.w3.org/2000/svg" xmlns:xlink="http://www.w3.org/1999/xlink" x="0px" y="0px"
	 viewBox="0 0 595.28 841.89" style="enable-background:new 0 0 595.28 841.89;" xml:space="preserve">
<style type="text/css">
	.st0{fill:#CF2730;}
	.st1{fill:#CF2730;stroke:#CC2939;stroke-width:1.2498;}
</style>
<path class="st0" d="M4.23,409.24c0.79-162.33,132.73-293.94,293.82-293.07c162.42,0.88,293.82,132.68,293,293.88
	c-0.83,162.39-132.75,293.99-293.82,293.09C134.83,702.25,3.44,570.45,4.23,409.24z M57.64,409.15
	c-0.38,132.36,106.96,240.17,239.5,240.56c132.33,0.39,240.1-106.97,240.5-239.57c0.39-132.38-106.93-240.16-239.51-240.54
	C165.78,169.24,58.02,276.57,57.64,409.15z"/>
<path class="st1" d="M324.2,318.56c0,22.92,0.13,45.84-0.11,68.76c-0.05,4.42,1.45,6.59,5.31,8.49c28.54,14.08,57,28.32,85.42,42.66
	c11.45,5.78,17.39,16.21,16,27.2c-2.43,19.24-21.46,29.44-39.23,20.72c-22.6-11.08-45.04-22.48-67.56-33.74
	c-12.47-6.24-24.94-12.45-37.39-18.71c-10.26-5.16-15.55-13.46-15.55-25.02c0-52.93-0.07-105.85,0.05-158.78
	c0.03-14.06,9.43-25.03,22.28-26.79c13.77-1.88,26.2,5.92,29.76,19.06c0.91,3.35,0.97,7,0.98,10.52
	C324.24,274.8,324.2,296.68,324.2,318.56z"/>
</svg>
