<?xml version="1.0" encoding="utf-8"?>
<!-- Generator: Adobe Illustrator 25.2.1, SVG Export Plug-In . SVG Version: 6.00 Build 0)  -->
<svg version="1.1" id="Layer_1" xmlns="http://www.w3.org/2000/svg" xmlns:xlink="http://www.w3.org/1999/xlink" x="0px" y="0px"
	 viewBox="0 0 595.28 841.89" style="enable-background:new 0 0 595.28 841.89;" xml:space="preserve">
<style type="text/css">
	.st0{fill:#CF2730;stroke:#CF2730;stroke-width:1.662;}
</style>
<path class="st0" d="M299.57,578.16c-70.9,0-141.82-0.98-212.67,0.45c-31.33,0.63-64.67-32.29-64.22-63.73
	c1.28-89.15,0.28-178.34,0.61-267.5c0.14-38.54,26.83-64.87,65.4-64.95c105.24-0.25,210.46-0.28,315.7-0.3
	c36.55-0.01,73.12-0.12,109.66,0.48c30.32,0.5,51.41,15.64,61.92,43.52c1.62,4.27,2.54,9.09,2.56,13.64
	c0.1,93.32,0.18,186.65-0.1,279.97c-0.08,28.99-29.53,58.07-58.7,58.17c-73.38,0.22-146.78,0.07-220.15,0.07
	C299.57,578.01,299.57,578.08,299.57,578.16z M51.12,229.77c-1.05,6.31-2.69,11.67-2.71,17c-0.16,88.61-0.2,177.24-0.05,265.88
	c0.03,23.09,16.76,40.2,39.67,40.24c141.8,0.15,283.59,0.15,425.39,0.01c23.02-0.01,40.01-16.92,40.05-39.86
	c0.16-88.9,0.12-177.81-0.05-266.71c-0.01-5.24-1.78-10.49-2.86-16.42c-2.63,1.43-3.84,2.09-5.03,2.75
	c-77.36,42.63-154.78,85.13-231.99,128.05c-8.9,4.94-15.87,5.32-24.98,0.22c-47.65-26.7-95.71-52.7-143.58-79.06
	C114.08,264.85,83.29,247.63,51.12,229.77z M528.58,211.76c-0.03-0.67-0.05-1.35-0.08-2.01c-4.99-0.82-9.97-2.34-14.96-2.34
	c-141.77-0.14-283.55-0.14-425.29,0c-5.01,0-10.02,1.47-17.4,2.63c4.39,2.84,6.37,4.29,8.48,5.47
	c71.95,39.92,143.96,79.74,215.82,119.83c5.03,2.8,8.5,1.71,12.83-0.72c67.53-37.63,135.12-75.17,202.69-112.73
	C516.67,218.53,522.62,215.13,528.58,211.76z"/>
</svg>
